<svg xmlns="http://www.w3.org/2000/svg" xmlns:xlink="http://www.w3.org/1999/xlink" width="1280" zoomAndPan="magnify" viewBox="0 0 960 540.000001" height="720" preserveAspectRatio="xMidYMid meet" version="1.0"><defs><g/><clipPath id="d5db6952f6"><path d="M 0.886719 0 L 959.113281 0 L 959.113281 539 L 0.886719 539 Z M 0.886719 0 " clip-rule="nonzero"/></clipPath></defs><g clip-path="url(#d5db6952f6)"><path fill="#ffffff" d="M 0.886719 0 L 959.113281 0 L 959.113281 539 L 0.886719 539 Z M 0.886719 0 " fill-opacity="1" fill-rule="nonzero"/><path fill="#000000" d="M 0.886719 0 L 959.113281 0 L 959.113281 539 L 0.886719 539 Z M 0.886719 0 " fill-opacity="1" fill-rule="nonzero"/></g><g fill="#ffffff" fill-opacity="1"><g transform="translate(209.184489, 317.096342)"><g><path d="M 12 0 L 12 -92.375 L 51.4375 -92.375 C 57.125 -92.375 61.9375 -91.476562 65.875 -89.6875 C 69.8125 -87.90625 72.789062 -85.359375 74.8125 -82.046875 C 76.832031 -78.742188 77.84375 -74.835938 77.84375 -70.328125 C 77.84375 -66.242188 76.851562 -62.640625 74.875 -59.515625 C 72.894531 -56.398438 70.050781 -53.894531 66.34375 -52 L 66.34375 -50.671875 C 72.15625 -49.160156 76.640625 -46.398438 79.796875 -42.390625 C 82.960938 -38.390625 84.546875 -33.484375 84.546875 -27.671875 C 84.546875 -18.828125 81.878906 -12.003906 76.546875 -7.203125 C 71.222656 -2.398438 63.316406 0 52.828125 0 Z M 47.640625 -55.546875 C 56.148438 -55.546875 60.40625 -59.378906 60.40625 -67.046875 C 60.40625 -70.960938 59.351562 -73.878906 57.25 -75.796875 C 55.144531 -77.710938 51.941406 -78.671875 47.640625 -78.671875 L 30.265625 -78.671875 L 30.265625 -55.546875 Z M 50.984375 -14.46875 C 61.054688 -14.46875 66.09375 -19.039062 66.09375 -28.1875 C 66.09375 -37.363281 61.054688 -41.953125 50.984375 -41.953125 L 30.265625 -41.953125 L 30.265625 -14.46875 Z M 50.984375 -14.46875 "/></g></g></g><g fill="#ffffff" fill-opacity="1"><g transform="translate(299.537021, 317.096342)"><g><path d="M 40.5 1.328125 C 33.675781 1.328125 27.679688 -0.0703125 22.515625 -2.875 C 17.359375 -5.675781 13.359375 -9.78125 10.515625 -15.1875 C 7.671875 -20.601562 6.25 -27.144531 6.25 -34.8125 C 6.25 -42.476562 7.671875 -49.03125 10.515625 -54.46875 C 13.359375 -59.90625 17.359375 -64.019531 22.515625 -66.8125 C 27.679688 -69.613281 33.675781 -71.015625 40.5 -71.015625 C 47.320312 -71.015625 53.3125 -69.613281 58.46875 -66.8125 C 63.632812 -64.019531 67.648438 -59.90625 70.515625 -54.46875 C 73.378906 -49.03125 74.8125 -42.476562 74.8125 -34.8125 C 74.8125 -27.144531 73.378906 -20.601562 70.515625 -15.1875 C 67.648438 -9.78125 63.632812 -5.675781 58.46875 -2.875 C 53.3125 -0.0703125 47.320312 1.328125 40.5 1.328125 Z M 40.5 -13.515625 C 51.320312 -13.515625 56.734375 -20.613281 56.734375 -34.8125 C 56.734375 -42.1875 55.34375 -47.585938 52.5625 -51.015625 C 49.789062 -54.453125 45.769531 -56.171875 40.5 -56.171875 C 29.675781 -56.171875 24.265625 -49.050781 24.265625 -34.8125 C 24.265625 -20.613281 29.675781 -13.515625 40.5 -13.515625 Z M 40.5 -13.515625 "/></g></g></g><g fill="#ffffff" fill-opacity="1"><g transform="translate(380.538381, 317.096342)"><g><path d="M 40.5 1.328125 C 33.675781 1.328125 27.679688 -0.0703125 22.515625 -2.875 C 17.359375 -5.675781 13.359375 -9.78125 10.515625 -15.1875 C 7.671875 -20.601562 6.25 -27.144531 6.25 -34.8125 C 6.25 -42.476562 7.671875 -49.03125 10.515625 -54.46875 C 13.359375 -59.90625 17.359375 -64.019531 22.515625 -66.8125 C 27.679688 -69.613281 33.675781 -71.015625 40.5 -71.015625 C 47.320312 -71.015625 53.3125 -69.613281 58.46875 -66.8125 C 63.632812 -64.019531 67.648438 -59.90625 70.515625 -54.46875 C 73.378906 -49.03125 74.8125 -42.476562 74.8125 -34.8125 C 74.8125 -27.144531 73.378906 -20.601562 70.515625 -15.1875 C 67.648438 -9.78125 63.632812 -5.675781 58.46875 -2.875 C 53.3125 -0.0703125 47.320312 1.328125 40.5 1.328125 Z M 40.5 -13.515625 C 51.320312 -13.515625 56.734375 -20.613281 56.734375 -34.8125 C 56.734375 -42.1875 55.34375 -47.585938 52.5625 -51.015625 C 49.789062 -54.453125 45.769531 -56.171875 40.5 -56.171875 C 29.675781 -56.171875 24.265625 -49.050781 24.265625 -34.8125 C 24.265625 -20.613281 29.675781 -13.515625 40.5 -13.515625 Z M 40.5 -13.515625 "/></g></g></g><g fill="#ffffff" fill-opacity="1"><g transform="translate(461.539741, 317.096342)"><g><path d="M 10.046875 0 L 10.046875 -97.6875 L 27.546875 -97.6875 L 27.546875 -43.46875 L 29.25 -43.46875 L 49.40625 -69.6875 L 67.171875 -69.6875 L 67.171875 -68.234375 L 43.46875 -37.65625 L 69.828125 -1.578125 L 69.828125 0 L 51.375 0 L 29.25 -29.375 L 27.546875 -29.375 L 27.546875 0 Z M 10.046875 0 "/></g></g></g><g fill="#ffffff" fill-opacity="1"><g transform="translate(531.483988, 317.096342)"><g><path d="M 70.578125 -92.375 L 70.578125 -77.09375 L 30.265625 -77.09375 L 30.265625 -52.640625 L 66.84375 -52.640625 L 66.84375 -37.53125 L 30.265625 -37.53125 L 30.265625 0 L 12 0 L 12 -92.375 Z M 70.578125 -92.375 "/></g></g></g><g fill="#ffffff" fill-opacity="1"><g transform="translate(606.16699, 317.096342)"><g><path d="M 28.9375 1.328125 C 22.664062 1.328125 17.875 -0.363281 14.5625 -3.75 C 11.257812 -7.144531 9.609375 -12.296875 9.609375 -19.203125 L 9.609375 -97.6875 L 27.109375 -97.6875 L 27.109375 -19.90625 C 27.109375 -15.644531 28.878906 -13.515625 32.421875 -13.515625 C 33.429688 -13.515625 34.503906 -13.6875 35.640625 -14.03125 L 36.515625 -13.78125 L 38.09375 -0.3125 C 37.125 0.1875 35.835938 0.582031 34.234375 0.875 C 32.640625 1.175781 30.875 1.328125 28.9375 1.328125 Z M 28.9375 1.328125 "/></g></g></g><g fill="#ffffff" fill-opacity="1"><g transform="translate(646.225385, 317.096342)"><g><path d="M 18.765625 -78.03125 C 15.609375 -78.03125 13.039062 -78.988281 11.0625 -80.90625 C 9.082031 -82.820312 8.09375 -85.296875 8.09375 -88.328125 C 8.09375 -91.328125 9.082031 -93.785156 11.0625 -95.703125 C 13.039062 -97.617188 15.609375 -98.578125 18.765625 -98.578125 C 20.867188 -98.578125 22.742188 -98.132812 24.390625 -97.25 C 26.035156 -96.363281 27.3125 -95.148438 28.21875 -93.609375 C 29.125 -92.078125 29.578125 -90.316406 29.578125 -88.328125 C 29.578125 -86.347656 29.125 -84.578125 28.21875 -83.015625 C 27.3125 -81.460938 26.035156 -80.242188 24.390625 -79.359375 C 22.742188 -78.472656 20.867188 -78.03125 18.765625 -78.03125 Z M 10.046875 0 L 10.046875 -69.6875 L 27.546875 -69.6875 L 27.546875 0 Z M 10.046875 0 "/></g></g></g><g fill="#ffffff" fill-opacity="1"><g transform="translate(683.756436, 317.096342)"><g><path d="M 19.65625 0 L 1.203125 0 L 21.109375 -36.140625 L 2.28125 -69.6875 L 20.984375 -69.6875 L 33.046875 -46.765625 L 34.5 -46.765625 L 46.625 -69.6875 L 64.765625 -69.6875 L 46.5 -36.140625 L 65.84375 0 L 47.203125 0 L 34.0625 -25.46875 L 32.609375 -25.46875 Z M 19.65625 0 "/></g></g></g></svg>