<svg xmlns="http://www.w3.org/2000/svg" xmlns:xlink="http://www.w3.org/1999/xlink" width="1280" zoomAndPan="magnify" viewBox="0 0 960 540.000001" height="720" preserveAspectRatio="xMidYMid meet" version="1.0"><defs><g/><clipPath id="15c22fa3e1"><path d="M 0.886719 0 L 959.113281 0 L 959.113281 539 L 0.886719 539 Z M 0.886719 0 " clip-rule="nonzero"/></clipPath></defs><g clip-path="url(#15c22fa3e1)"><path fill="#ffffff" d="M 0.886719 0 L 959.113281 0 L 959.113281 539 L 0.886719 539 Z M 0.886719 0 " fill-opacity="1" fill-rule="nonzero"/><path fill="#000000" d="M 0.886719 0 L 959.113281 0 L 959.113281 539 L 0.886719 539 Z M 0.886719 0 " fill-opacity="1" fill-rule="nonzero"/></g><g fill="#ffffff" fill-opacity="1"><g transform="translate(247.634134, 317.096342)"><g><path d="M 71.65625 -57.625 L 71.65625 -92.375 L 89.84375 -92.375 L 89.84375 0 L 71.65625 0 L 71.65625 -42.078125 L 30.265625 -42.078125 L 30.265625 0 L 12 0 L 12 -92.375 L 30.265625 -92.375 L 30.265625 -57.625 Z M 71.65625 -57.625 "/></g></g></g><g fill="#ffffff" fill-opacity="1"><g transform="translate(349.549276, 317.096342)"><g><path d="M 68.875 -30.890625 L 24.078125 -30.890625 C 24.578125 -24.828125 26.300781 -20.414062 29.25 -17.65625 C 32.195312 -14.894531 36.222656 -13.515625 41.328125 -13.515625 C 45.328125 -13.515625 48.566406 -14.265625 51.046875 -15.765625 C 53.535156 -17.265625 55.539062 -19.53125 57.0625 -22.5625 L 58.390625 -22.5625 L 70.015625 -15.109375 C 67.734375 -10.210938 64.296875 -6.25 59.703125 -3.21875 C 55.117188 -0.1875 48.992188 1.328125 41.328125 1.328125 C 34.117188 1.328125 27.890625 -0.0390625 22.640625 -2.78125 C 17.398438 -5.519531 13.359375 -9.59375 10.515625 -15 C 7.671875 -20.414062 6.25 -27.019531 6.25 -34.8125 C 6.25 -42.726562 7.742188 -49.40625 10.734375 -54.84375 C 13.734375 -60.28125 17.78125 -64.332031 22.875 -67 C 27.96875 -69.675781 33.695312 -71.015625 40.0625 -71.015625 C 49.914062 -71.015625 57.460938 -68.398438 62.703125 -63.171875 C 67.953125 -57.953125 70.578125 -50.289062 70.578125 -40.1875 C 70.578125 -36.519531 70.453125 -33.675781 70.203125 -31.65625 Z M 53.828125 -42.203125 C 53.660156 -47.515625 52.425781 -51.378906 50.125 -53.796875 C 47.832031 -56.222656 44.476562 -57.4375 40.0625 -57.4375 C 31.21875 -57.4375 26.015625 -52.359375 24.453125 -42.203125 Z M 53.828125 -42.203125 "/></g></g></g><g fill="#ffffff" fill-opacity="1"><g transform="translate(424.23225, 317.096342)"><g><path d="M 19.65625 0 L 1.203125 0 L 21.109375 -36.140625 L 2.28125 -69.6875 L 20.984375 -69.6875 L 33.046875 -46.765625 L 34.5 -46.765625 L 46.625 -69.6875 L 64.765625 -69.6875 L 46.5 -36.140625 L 65.84375 0 L 47.203125 0 L 34.0625 -25.46875 L 32.609375 -25.46875 Z M 19.65625 0 "/></g></g></g><g fill="#ffffff" fill-opacity="1"><g transform="translate(491.270051, 317.096342)"><g><path d="M 37.40625 0 L 19.078125 0 L 2.53125 -69.6875 L 18.765625 -69.6875 L 29 -22.5625 L 30.328125 -22.5625 L 43.59375 -69.6875 L 58.765625 -69.6875 L 72.46875 -22.5625 L 73.796875 -22.5625 L 83.65625 -69.6875 L 99.453125 -69.6875 L 83.09375 0 L 64.703125 0 L 51.5 -47.453125 L 50.171875 -47.453125 Z M 37.40625 0 "/></g></g></g><g fill="#ffffff" fill-opacity="1"><g transform="translate(593.185193, 317.096342)"><g><path d="M 18.765625 -78.03125 C 15.609375 -78.03125 13.039062 -78.988281 11.0625 -80.90625 C 9.082031 -82.820312 8.09375 -85.296875 8.09375 -88.328125 C 8.09375 -91.328125 9.082031 -93.785156 11.0625 -95.703125 C 13.039062 -97.617188 15.609375 -98.578125 18.765625 -98.578125 C 20.867188 -98.578125 22.742188 -98.132812 24.390625 -97.25 C 26.035156 -96.363281 27.3125 -95.148438 28.21875 -93.609375 C 29.125 -92.078125 29.578125 -90.316406 29.578125 -88.328125 C 29.578125 -86.347656 29.125 -84.578125 28.21875 -83.015625 C 27.3125 -81.460938 26.035156 -80.242188 24.390625 -79.359375 C 22.742188 -78.472656 20.867188 -78.03125 18.765625 -78.03125 Z M 10.046875 0 L 10.046875 -69.6875 L 27.546875 -69.6875 L 27.546875 0 Z M 10.046875 0 "/></g></g></g><g fill="#ffffff" fill-opacity="1"><g transform="translate(630.716244, 317.096342)"><g><path d="M 10.046875 0 L 10.046875 -69.6875 L 26.859375 -69.6875 L 26.859375 -59.453125 L 28.1875 -59.140625 C 32.519531 -67.054688 39.550781 -71.015625 49.28125 -71.015625 C 57.332031 -71.015625 63.242188 -68.820312 67.015625 -64.4375 C 70.785156 -60.0625 72.671875 -53.6875 72.671875 -45.3125 L 72.671875 0 L 55.15625 0 L 55.15625 -43.15625 C 55.15625 -47.789062 54.226562 -51.128906 52.375 -53.171875 C 50.519531 -55.210938 47.550781 -56.234375 43.46875 -56.234375 C 38.457031 -56.234375 34.550781 -54.609375 31.75 -51.359375 C 28.945312 -48.117188 27.546875 -43.023438 27.546875 -36.078125 L 27.546875 0 Z M 10.046875 0 "/></g></g></g></svg>