<svg xmlns="http://www.w3.org/2000/svg" xmlns:xlink="http://www.w3.org/1999/xlink" width="1280" zoomAndPan="magnify" viewBox="0 0 960 540.000001" height="720" preserveAspectRatio="xMidYMid meet" version="1.0"><defs><g/><clipPath id="3c06e3d20e"><path d="M 0.886719 0 L 959.113281 0 L 959.113281 539 L 0.886719 539 Z M 0.886719 0 " clip-rule="nonzero"/></clipPath></defs><g clip-path="url(#3c06e3d20e)"><path fill="#ffffff" d="M 0.886719 0 L 959.113281 0 L 959.113281 539 L 0.886719 539 Z M 0.886719 0 " fill-opacity="1" fill-rule="nonzero"/><path fill="#000000" d="M 0.886719 0 L 959.113281 0 L 959.113281 539 L 0.886719 539 Z M 0.886719 0 " fill-opacity="1" fill-rule="nonzero"/></g><g fill="#ffffff" fill-opacity="1"><g transform="translate(199.65376, 317.096342)"><g><path d="M 47.703125 -92.375 C 54.316406 -92.375 59.972656 -91.160156 64.671875 -88.734375 C 69.367188 -86.316406 72.914062 -82.925781 75.3125 -78.5625 C 77.71875 -74.207031 78.921875 -69.144531 78.921875 -63.375 C 78.921875 -57.601562 77.71875 -52.546875 75.3125 -48.203125 C 72.914062 -43.867188 69.367188 -40.488281 64.671875 -38.0625 C 59.972656 -35.644531 54.316406 -34.4375 47.703125 -34.4375 L 30.265625 -34.4375 L 30.265625 0 L 12 0 L 12 -92.375 Z M 45.3125 -48.90625 C 55.457031 -48.90625 60.53125 -53.726562 60.53125 -63.375 C 60.53125 -73.0625 55.457031 -77.90625 45.3125 -77.90625 L 30.265625 -77.90625 L 30.265625 -48.90625 Z M 45.3125 -48.90625 "/></g></g></g><g fill="#ffffff" fill-opacity="1"><g transform="translate(280.402301, 317.096342)"><g><path d="M 40.5 1.328125 C 33.675781 1.328125 27.679688 -0.0703125 22.515625 -2.875 C 17.359375 -5.675781 13.359375 -9.78125 10.515625 -15.1875 C 7.671875 -20.601562 6.25 -27.144531 6.25 -34.8125 C 6.25 -42.476562 7.671875 -49.03125 10.515625 -54.46875 C 13.359375 -59.90625 17.359375 -64.019531 22.515625 -66.8125 C 27.679688 -69.613281 33.675781 -71.015625 40.5 -71.015625 C 47.320312 -71.015625 53.3125 -69.613281 58.46875 -66.8125 C 63.632812 -64.019531 67.648438 -59.90625 70.515625 -54.46875 C 73.378906 -49.03125 74.8125 -42.476562 74.8125 -34.8125 C 74.8125 -27.144531 73.378906 -20.601562 70.515625 -15.1875 C 67.648438 -9.78125 63.632812 -5.675781 58.46875 -2.875 C 53.3125 -0.0703125 47.320312 1.328125 40.5 1.328125 Z M 40.5 -13.515625 C 51.320312 -13.515625 56.734375 -20.613281 56.734375 -34.8125 C 56.734375 -42.1875 55.34375 -47.585938 52.5625 -51.015625 C 49.789062 -54.453125 45.769531 -56.171875 40.5 -56.171875 C 29.675781 -56.171875 24.265625 -49.050781 24.265625 -34.8125 C 24.265625 -20.613281 29.675781 -13.515625 40.5 -13.515625 Z M 40.5 -13.515625 "/></g></g></g><g fill="#ffffff" fill-opacity="1"><g transform="translate(361.403661, 317.096342)"><g><path d="M 10.046875 0 L 10.046875 -69.6875 L 27.046875 -69.6875 L 27.046875 -59.328125 L 28.375 -59.078125 C 30.050781 -62.953125 32.257812 -65.796875 35 -67.609375 C 37.738281 -69.421875 41.066406 -70.328125 44.984375 -70.328125 C 48.941406 -70.328125 51.957031 -69.65625 54.03125 -68.3125 L 51.0625 -53.203125 L 49.734375 -52.953125 C 48.585938 -53.410156 47.488281 -53.742188 46.4375 -53.953125 C 45.382812 -54.171875 44.101562 -54.28125 42.59375 -54.28125 C 37.707031 -54.28125 33.976562 -52.5625 31.40625 -49.125 C 28.832031 -45.695312 27.546875 -40.191406 27.546875 -32.609375 L 27.546875 0 Z M 10.046875 0 "/></g></g></g><g fill="#ffffff" fill-opacity="1"><g transform="translate(416.942078, 317.096342)"><g><path d="M 48.078125 -16.625 L 52.640625 -3.671875 C 50.742188 -2.109375 48.363281 -0.882812 45.5 0 C 42.632812 0.882812 39.390625 1.328125 35.765625 1.328125 C 28.222656 1.328125 22.492188 -0.722656 18.578125 -4.828125 C 14.660156 -8.941406 12.703125 -14.914062 12.703125 -22.75 L 12.703125 -55.859375 L 2.078125 -55.859375 L 2.078125 -69.765625 L 12.703125 -69.765625 L 12.703125 -83.34375 L 30.203125 -86.1875 L 30.203125 -69.765625 L 49.984375 -69.765625 L 49.984375 -55.859375 L 30.203125 -55.859375 L 30.203125 -24.015625 C 30.203125 -20.554688 30.914062 -18.035156 32.34375 -16.453125 C 33.78125 -14.878906 35.867188 -14.09375 38.609375 -14.09375 C 41.722656 -14.09375 44.441406 -14.9375 46.765625 -16.625 Z M 48.078125 -16.625 "/></g></g></g><g fill="#ffffff" fill-opacity="1"><g transform="translate(471.090428, 317.096342)"><g><path d="M 12.1875 0 L 12.1875 -55.859375 L 2.34375 -55.859375 L 2.34375 -69.765625 L 12.1875 -69.765625 C 11.476562 -72.710938 11.125 -75.46875 11.125 -78.03125 C 11.125 -82.457031 12.132812 -86.238281 14.15625 -89.375 C 16.175781 -92.507812 19.082031 -94.898438 22.875 -96.546875 C 26.664062 -98.191406 31.171875 -99.015625 36.390625 -99.015625 C 44.097656 -99.015625 49.847656 -97.6875 53.640625 -95.03125 L 49.53125 -82.140625 L 48.21875 -81.890625 C 45.601562 -83.742188 42.253906 -84.671875 38.171875 -84.671875 C 35.003906 -84.671875 32.628906 -83.898438 31.046875 -82.359375 C 29.472656 -80.828125 28.6875 -78.734375 28.6875 -76.078125 C 28.6875 -74.941406 28.757812 -73.898438 28.90625 -72.953125 C 29.050781 -72.003906 29.316406 -70.941406 29.703125 -69.765625 L 49.59375 -69.765625 L 49.59375 -55.859375 L 29.703125 -55.859375 L 29.703125 0 Z M 12.1875 0 "/></g></g></g><g fill="#ffffff" fill-opacity="1"><g transform="translate(520.7527, 317.096342)"><g><path d="M 40.5 1.328125 C 33.675781 1.328125 27.679688 -0.0703125 22.515625 -2.875 C 17.359375 -5.675781 13.359375 -9.78125 10.515625 -15.1875 C 7.671875 -20.601562 6.25 -27.144531 6.25 -34.8125 C 6.25 -42.476562 7.671875 -49.03125 10.515625 -54.46875 C 13.359375 -59.90625 17.359375 -64.019531 22.515625 -66.8125 C 27.679688 -69.613281 33.675781 -71.015625 40.5 -71.015625 C 47.320312 -71.015625 53.3125 -69.613281 58.46875 -66.8125 C 63.632812 -64.019531 67.648438 -59.90625 70.515625 -54.46875 C 73.378906 -49.03125 74.8125 -42.476562 74.8125 -34.8125 C 74.8125 -27.144531 73.378906 -20.601562 70.515625 -15.1875 C 67.648438 -9.78125 63.632812 -5.675781 58.46875 -2.875 C 53.3125 -0.0703125 47.320312 1.328125 40.5 1.328125 Z M 40.5 -13.515625 C 51.320312 -13.515625 56.734375 -20.613281 56.734375 -34.8125 C 56.734375 -42.1875 55.34375 -47.585938 52.5625 -51.015625 C 49.789062 -54.453125 45.769531 -56.171875 40.5 -56.171875 C 29.675781 -56.171875 24.265625 -49.050781 24.265625 -34.8125 C 24.265625 -20.613281 29.675781 -13.515625 40.5 -13.515625 Z M 40.5 -13.515625 "/></g></g></g><g fill="#ffffff" fill-opacity="1"><g transform="translate(601.75406, 317.096342)"><g><path d="M 28.9375 1.328125 C 22.664062 1.328125 17.875 -0.363281 14.5625 -3.75 C 11.257812 -7.144531 9.609375 -12.296875 9.609375 -19.203125 L 9.609375 -97.6875 L 27.109375 -97.6875 L 27.109375 -19.90625 C 27.109375 -15.644531 28.878906 -13.515625 32.421875 -13.515625 C 33.429688 -13.515625 34.503906 -13.6875 35.640625 -14.03125 L 36.515625 -13.78125 L 38.09375 -0.3125 C 37.125 0.1875 35.835938 0.582031 34.234375 0.875 C 32.640625 1.175781 30.875 1.328125 28.9375 1.328125 Z M 28.9375 1.328125 "/></g></g></g><g fill="#ffffff" fill-opacity="1"><g transform="translate(641.812455, 317.096342)"><g><path d="M 18.765625 -78.03125 C 15.609375 -78.03125 13.039062 -78.988281 11.0625 -80.90625 C 9.082031 -82.820312 8.09375 -85.296875 8.09375 -88.328125 C 8.09375 -91.328125 9.082031 -93.785156 11.0625 -95.703125 C 13.039062 -97.617188 15.609375 -98.578125 18.765625 -98.578125 C 20.867188 -98.578125 22.742188 -98.132812 24.390625 -97.25 C 26.035156 -96.363281 27.3125 -95.148438 28.21875 -93.609375 C 29.125 -92.078125 29.578125 -90.316406 29.578125 -88.328125 C 29.578125 -86.347656 29.125 -84.578125 28.21875 -83.015625 C 27.3125 -81.460938 26.035156 -80.242188 24.390625 -79.359375 C 22.742188 -78.472656 20.867188 -78.03125 18.765625 -78.03125 Z M 10.046875 0 L 10.046875 -69.6875 L 27.546875 -69.6875 L 27.546875 0 Z M 10.046875 0 "/></g></g></g><g fill="#ffffff" fill-opacity="1"><g transform="translate(679.343506, 317.096342)"><g><path d="M 40.5 1.328125 C 33.675781 1.328125 27.679688 -0.0703125 22.515625 -2.875 C 17.359375 -5.675781 13.359375 -9.78125 10.515625 -15.1875 C 7.671875 -20.601562 6.25 -27.144531 6.25 -34.8125 C 6.25 -42.476562 7.671875 -49.03125 10.515625 -54.46875 C 13.359375 -59.90625 17.359375 -64.019531 22.515625 -66.8125 C 27.679688 -69.613281 33.675781 -71.015625 40.5 -71.015625 C 47.320312 -71.015625 53.3125 -69.613281 58.46875 -66.8125 C 63.632812 -64.019531 67.648438 -59.90625 70.515625 -54.46875 C 73.378906 -49.03125 74.8125 -42.476562 74.8125 -34.8125 C 74.8125 -27.144531 73.378906 -20.601562 70.515625 -15.1875 C 67.648438 -9.78125 63.632812 -5.675781 58.46875 -2.875 C 53.3125 -0.0703125 47.320312 1.328125 40.5 1.328125 Z M 40.5 -13.515625 C 51.320312 -13.515625 56.734375 -20.613281 56.734375 -34.8125 C 56.734375 -42.1875 55.34375 -47.585938 52.5625 -51.015625 C 49.789062 -54.453125 45.769531 -56.171875 40.5 -56.171875 C 29.675781 -56.171875 24.265625 -49.050781 24.265625 -34.8125 C 24.265625 -20.613281 29.675781 -13.515625 40.5 -13.515625 Z M 40.5 -13.515625 "/></g></g></g></svg>